<?xml version="1.0" standalone="no"?><!DOCTYPE svg PUBLIC "-//W3C//DTD SVG 1.1//EN" "http://www.w3.org/Graphics/SVG/1.1/DTD/svg11.dtd"><svg t="1650876358453" class="icon" viewBox="0 0 1024 1024" version="1.1" xmlns="http://www.w3.org/2000/svg" p-id="7006" xmlns:xlink="http://www.w3.org/1999/xlink" width="200" height="200"><defs><style type="text/css">@font-face { font-family: feedback-iconfont; src: url("//at.alicdn.com/t/font_1031158_u69w8yhxdu.woff2?t=1630033759944") format("woff2"), url("//at.alicdn.com/t/font_1031158_u69w8yhxdu.woff?t=1630033759944") format("woff"), url("//at.alicdn.com/t/font_1031158_u69w8yhxdu.ttf?t=1630033759944") format("truetype"); }
</style></defs><path d="M395.636 477.09h512a34.91 34.91 0 1 1 0 69.82h-512a34.91 34.91 0 1 1 0-69.82zM128 162.91a34.91 34.91 0 1 1 0-69.82h791.273a34.91 34.91 0 1 1 0 69.82H128z m791.273 698.18a34.91 34.91 0 1 1 0 69.82H128a34.91 34.91 0 1 1 0-69.82h791.273z m-624.71-504.017v309.83L93.09 512l201.472-154.927z" p-id="7007"></path></svg>